<!-- Generated by IcoMoon.io -->
<svg version="1.1" xmlns="http://www.w3.org/2000/svg" width="34" height="32" viewBox="0 0 34 32">
<title>11</title>
<path fill="none" stroke="#1c5368" stroke-linejoin="miter" stroke-linecap="butt" stroke-miterlimit="10" stroke-width="0.9897" d="M29.069 24.329c-2.038 3.088-5.131 5.346-8.713 6.362s-7.413 0.721-10.794-0.83-6.083-4.255-7.615-7.618c-1.532-3.362-1.79-7.158-0.726-10.694s3.376-6.573 6.516-8.559c3.14-1.985 6.897-2.785 10.584-2.254s7.057 2.36 9.495 5.15 3.779 6.355 3.779 10.044c0 0.112 0 0.225 0 0.328"></path>
<path fill="#1c5368" stroke="#1c5368" stroke-linejoin="round" stroke-linecap="round" stroke-miterlimit="4" stroke-width="0.6598" d="M16.842 27.033c1.687 0 3.055-1.354 3.055-3.024s-1.368-3.024-3.055-3.024c-1.687 0-3.054 1.354-3.054 3.024s1.368 3.024 3.054 3.024z"></path>
<path fill="#fff" stroke="#1c5368" stroke-linejoin="round" stroke-linecap="round" stroke-miterlimit="4" stroke-width="0.6598" d="M16.841 25.68c0.932 0 1.688-0.748 1.688-1.671s-0.756-1.671-1.688-1.671-1.688 0.748-1.688 1.671c0 0.923 0.756 1.671 1.688 1.671z"></path>
<path fill="#1c5368" stroke="#1c5368" stroke-linejoin="round" stroke-linecap="round" stroke-miterlimit="4" stroke-width="0.6598" d="M11.576 24.683c-0.089 0.598-0.393 1.144-0.855 1.539s-1.052 0.612-1.662 0.612c-0.61 0-1.2-0.217-1.662-0.612s-0.765-0.941-0.855-1.539h5.034z"></path>
<path fill="none" stroke="#1c5368" stroke-linejoin="round" stroke-linecap="round" stroke-miterlimit="4" stroke-width="0.9897" d="M20.621 19.334c-0.359-3.895-2.443-8.262-3.924-10.28-0.421-0.57-0.972-1.033-1.607-1.351s-1.339-0.485-2.052-0.484h-5.599c-0.21 0-0.418 0.041-0.612 0.121s-0.37 0.196-0.519 0.343c-0.148 0.147-0.266 0.322-0.346 0.514s-0.121 0.398-0.121 0.606v10.059"></path>
<path fill="none" stroke="#1c5368" stroke-linejoin="round" stroke-linecap="round" stroke-miterlimit="4" stroke-width="0.9897" d="M13.865 24.683h-8.58v-3.698h7.747c1.554-2.557 5.821-2.655 7.592 0"></path>
<path fill="none" stroke="#1c5368" stroke-linejoin="round" stroke-linecap="round" stroke-miterlimit="4" stroke-width="0.9897" d="M8.741 20.986c0.020-1.533-0.954-2.337-4.212-1.955v4.98h0.755"></path>
<path fill="none" stroke="#1c5368" stroke-linejoin="round" stroke-linecap="round" stroke-miterlimit="4" stroke-width="0.9897" d="M4.529 21.474h-1.034v2.535h1.034"></path>
<path fill="none" stroke="#1c5368" stroke-linejoin="round" stroke-linecap="round" stroke-miterlimit="4" stroke-width="0.9897" d="M7.941 19.334v-10.58"></path>
<path fill="none" stroke="#1c5368" stroke-linejoin="round" stroke-linecap="round" stroke-miterlimit="4" stroke-width="0.9897" d="M18.17 19.226c-0.25-4.788-3.313-8.565-3.787-8.703s-6.442 0-6.442 0"></path>
<path fill="none" stroke="#1c5368" stroke-linejoin="round" stroke-linecap="round" stroke-miterlimit="4" stroke-width="0.9897" d="M19.896 24.009h1.758"></path>
<path fill="none" stroke="#1c5368" stroke-linejoin="round" stroke-linecap="round" stroke-miterlimit="4" stroke-width="0.9897" d="M22.329 6.747h-0.676v18.33h0.676v-18.33z"></path>
<path fill="none" stroke="#1c5368" stroke-linejoin="round" stroke-linecap="round" stroke-miterlimit="4" stroke-width="0.9897" d="M22.965 14.844v9.485h10.053"></path>
<path fill="none" stroke="#1c5368" stroke-linejoin="round" stroke-linecap="round" stroke-miterlimit="4" stroke-width="0.9897" d="M32.462 16.266h-8.781v7.435h8.781v-7.435z"></path>
<path fill="none" stroke="#1c5368" stroke-linejoin="round" stroke-linecap="round" stroke-miterlimit="4" stroke-width="0.6598" d="M7.941 9.187h6.601c0 0 3.060 1.179 4.767 8.772"></path>
<path fill="#1c5368" stroke="#1c5368" stroke-linejoin="round" stroke-linecap="round" stroke-miterlimit="4" stroke-width="0.6598" d="M15.652 14.041l-3.81-0.295c0 0 0-1.651 1.391-1.299s1.231 1.122 1.231 1.122l1.188 0.144v0.328z"></path>
<path fill="none" stroke="#1c5368" stroke-linejoin="round" stroke-linecap="round" stroke-miterlimit="4" stroke-width="0.6598" d="M11.842 15.44c1.491 0.374 0.828 3.108 3.059 2.989 0 0 0.527-1.022 1.186-0.746"></path>
<path fill="none" stroke="#1c5368" stroke-linejoin="round" stroke-linecap="round" stroke-miterlimit="4" stroke-width="0.6598" d="M15.652 18.116c0 0 0.537 0.608 0.994 0"></path>
<path fill="none" stroke="#1c5368" stroke-linejoin="round" stroke-linecap="round" stroke-miterlimit="4" stroke-width="0.6598" d="M14.9 18.429c0 0-0.060 0.984 0.182 0.905"></path>
<path fill="none" stroke="#1c5368" stroke-linejoin="round" stroke-linecap="round" stroke-miterlimit="4" stroke-width="0.6598" d="M17.284 16.266l-1.196 1.984"></path>
<path fill="none" stroke="#1c5368" stroke-linejoin="round" stroke-linecap="round" stroke-miterlimit="4" stroke-width="0.6598" d="M16.086 18.885c0 0 0.56 0.253 0.56-0.253"></path>
<path fill="none" stroke="#1c5368" stroke-linejoin="round" stroke-linecap="round" stroke-miterlimit="4" stroke-width="0.6598" d="M11.135 17.485c0.348 1.947 1.709 3.080 2.829 2.46"></path>
<path fill="none" stroke="#1c5368" stroke-linejoin="round" stroke-linecap="round" stroke-miterlimit="4" stroke-width="0.6598" d="M10.409 20.986v-4.72c0.119-0.59 0.775-1.159 1.16-1.179s0.265-1.338 0.265-1.338"></path>
<path fill="none" stroke="#1c5368" stroke-linejoin="round" stroke-linecap="round" stroke-miterlimit="4" stroke-width="0.6598" d="M10.409 16.266h-1.668"></path>
<path fill="none" stroke="#1c5368" stroke-linejoin="round" stroke-linecap="round" stroke-miterlimit="4" stroke-width="0.6598" d="M14.347 13.942c0.116 0.574-0.227 1.804-0.722 1.655s-0.891 0.669-0.891 0.669"></path>
</svg>
