<!-- Generated by IcoMoon.io -->
<svg version="1.1" xmlns="http://www.w3.org/2000/svg" width="32" height="32" viewBox="0 0 32 32">
<title>2</title>
<path fill="none" stroke="#1c5368" stroke-linejoin="round" stroke-linecap="round" stroke-miterlimit="4" stroke-width="0.9897" d="M15.877 0.575c-3.027-0-5.985 0.897-8.502 2.578s-4.478 4.071-5.637 6.867c-1.158 2.796-1.462 5.873-0.871 8.842s2.048 5.695 4.188 7.835c2.14 2.14 4.867 3.598 7.835 4.188s6.045 0.287 8.842-0.871 5.186-3.12 6.867-5.637c1.681-2.517 2.578-5.475 2.578-8.502-0-4.058-1.613-7.949-4.482-10.819s-6.761-4.481-10.819-4.482v0zM24.838 20.809c-0.932 1.69-2.322 3.083-4.011 4.019l0.958 2.474c-1.849 0.955-3.901 1.447-5.982 1.435s-4.127-0.529-5.965-1.505l1.033-2.433c-1.657-0.933-3.023-2.307-3.947-3.97l-2.471 0.961c-0.951-1.84-1.444-3.882-1.438-5.953s0.512-4.11 1.474-5.944l2.451 1.003c0.93-1.666 2.307-3.039 3.975-3.965l0.686 1.778c1.293-0.77 2.77-1.177 4.275-1.177s2.982 0.407 4.275 1.177l0.686-1.778c1.669 0.926 3.045 2.3 3.975 3.966l2.451-1.007c0.958 1.828 1.464 3.859 1.474 5.922s-0.476 4.1-1.417 5.936l-2.483-0.94z"></path>
<path fill="none" stroke="#1c5368" stroke-linejoin="round" stroke-linecap="round" stroke-miterlimit="4" stroke-width="0.9897" d="M24.838 20.809c-0.932 1.69-2.322 3.083-4.011 4.019l-0.742-1.752c-1.265 0.779-2.728 1.176-4.213 1.144-1.626 0-2.992-0.34-4.275-1.144l-0.731 1.723c-1.657-0.933-3.023-2.307-3.947-3.97l-2.471 0.961c-0.951-1.84-1.444-3.882-1.438-5.953s0.512-4.11 1.474-5.944l2.451 1.003c0.93-1.666 2.307-3.039 3.975-3.965l0.686 1.778c1.293-0.77 2.77-1.177 4.275-1.177s2.982 0.407 4.275 1.177l0.686-1.778c1.67 0.925 3.049 2.299 3.98 3.966l-1.714 0.703c0.788 1.273 1.123 2.667 1.123 4.274 0 1.504-0.523 2.916-1.219 4.135l1.837 0.801z"></path>
<path fill="none" stroke="#1c5368" stroke-linejoin="round" stroke-linecap="round" stroke-miterlimit="4" stroke-width="0.9897" d="M28.747 15.876c0.003 2.043-0.483 4.058-1.417 5.875l-2.484-0.941-1.837-0.799c0.696-1.219 1.219-2.631 1.219-4.135 0-1.607-0.335-3.001-1.123-4.274l4.166-1.71c0.972 1.844 1.479 3.898 1.476 5.983z"></path>
<path fill="none" stroke="#1c5368" stroke-linejoin="round" stroke-linecap="round" stroke-miterlimit="4" stroke-width="0.9897" d="M21.785 27.303c-1.849 0.955-3.901 1.447-5.982 1.435s-4.127-0.529-5.965-1.505l1.763-4.156c1.283 0.804 2.649 1.144 4.275 1.144 1.485 0.032 2.948-0.365 4.213-1.144l0.737 1.752 0.958 2.474z"></path>
<path fill="none" stroke="#1c5368" stroke-linejoin="round" stroke-linecap="round" stroke-miterlimit="4" stroke-width="0.9897" d="M9.961 4.453c1.829-0.946 3.858-1.439 5.917-1.439s4.088 0.493 5.917 1.439"></path>
<path fill="none" stroke="#1c5368" stroke-linejoin="round" stroke-linecap="round" stroke-miterlimit="4" stroke-width="0.9897" d="M8.666 20.151c-0.791-1.276-1.134-2.664-1.134-4.275-0.001-1.495 0.401-2.964 1.165-4.249"></path>
<path fill="none" stroke="#1c5368" stroke-linejoin="round" stroke-linecap="round" stroke-miterlimit="4" stroke-width="0.9897" d="M20.151 8.713v-0.004"></path>
<path fill="none" stroke="#1c5368" stroke-linejoin="round" stroke-linecap="round" stroke-miterlimit="4" stroke-width="0.9897" d="M11.602 8.713v-0.004"></path>
<path fill="none" stroke="#1c5368" stroke-linejoin="round" stroke-linecap="round" stroke-miterlimit="4" stroke-width="0.9897" d="M21.793 4.453l-0.956 2.478"></path>
<path fill="none" stroke="#1c5368" stroke-linejoin="round" stroke-linecap="round" stroke-miterlimit="4" stroke-width="0.9897" d="M21.785 27.306v-0.004"></path>
<path fill="none" stroke="#1c5368" stroke-linejoin="round" stroke-linecap="round" stroke-miterlimit="4" stroke-width="0.9897" d="M9.838 27.232l-0.002 0.003"></path>
<path fill="none" stroke="#1c5368" stroke-linejoin="round" stroke-linecap="round" stroke-miterlimit="4" stroke-width="0.9897" d="M4.455 21.79h-0.004"></path>
<path fill="none" stroke="#1c5368" stroke-linejoin="round" stroke-linecap="round" stroke-miterlimit="4" stroke-width="0.9897" d="M8.667 11.602l-1.726-0.706"></path>
<path fill="#1c5368" stroke="#1c5368" stroke-linejoin="round" stroke-linecap="round" stroke-miterlimit="4" stroke-width="0.9897" d="M11.066 16.251l1.178-1.399 3.077 2.411 4.408-5.707 1.441 1.301-5.434 7.23-4.671-3.836z"></path>
<path fill="none" stroke="#1c5368" stroke-linejoin="round" stroke-linecap="round" stroke-miterlimit="4" stroke-width="0.9897" d="M9.959 4.453v0.002l0.956 2.476h-1.858"></path>
<path fill="none" stroke="#1c5368" stroke-linejoin="round" stroke-linecap="round" stroke-miterlimit="4" stroke-width="0.9897" d="M10.152 8.457l0.763-1.526"></path>
<path fill="none" stroke="#1c5368" stroke-linejoin="round" stroke-linecap="round" stroke-miterlimit="4" stroke-width="0.9897" d="M23.285 10.265l1.526 0.634 0.155-1.624"></path>
<path fill="none" stroke="#1c5368" stroke-linejoin="round" stroke-linecap="round" stroke-miterlimit="4" stroke-width="0.9897" d="M21.6 23.33l-0.773 1.499h1.714"></path>
<path fill="none" stroke="#1c5368" stroke-linejoin="round" stroke-linecap="round" stroke-miterlimit="4" stroke-width="0.9897" d="M8.666 20.151l-1.742 0.678 0.016 1.904"></path>
<path fill="none" stroke="#1c5368" stroke-linejoin="round" stroke-linecap="round" stroke-miterlimit="4" stroke-width="0.9897" d="M8.488 21.625l-1.564-0.796"></path>
</svg>
