<!-- Generated by IcoMoon.io -->
<svg version="1.1" xmlns="http://www.w3.org/2000/svg" width="32" height="32" viewBox="0 0 32 32">
<title>3</title>
<path fill="none" stroke="#1c5368" stroke-linejoin="miter" stroke-linecap="butt" stroke-miterlimit="10" stroke-width="0.9897" d="M10.642 1.492c3.379-1.223 7.080-1.223 10.46 0"></path>
<path fill="none" stroke="#1c5368" stroke-linejoin="round" stroke-linecap="round" stroke-miterlimit="4" stroke-width="0.9897" d="M6.568 3.733c-2.51 1.922-4.363 4.575-5.304 7.594s-0.924 6.254 0.050 9.262 2.854 5.641 5.385 7.537c2.53 1.895 5.586 2.961 8.746 3.049s6.271-0.805 8.903-2.556c2.632-1.751 4.657-4.275 5.796-7.224s1.337-6.179 0.566-9.245c-0.771-3.066-2.473-5.818-4.872-7.878"></path>
<path fill="none" stroke="#1c5368" stroke-linejoin="round" stroke-linecap="round" stroke-miterlimit="4" stroke-width="0.9897" d="M6.568 8.631v-7.137h19.27v25.995"></path>
<path fill="none" stroke="#1c5368" stroke-linejoin="round" stroke-linecap="round" stroke-miterlimit="4" stroke-width="0.9897" d="M6.568 28.020v-8.814"></path>
<path fill="none" stroke="#1c5368" stroke-linejoin="round" stroke-linecap="round" stroke-miterlimit="4" stroke-width="0.9897" d="M15.875 14.003c-0.005 0.326-0.041 0.65-0.108 0.969-0.154 0.734-0.464 1.427-0.909 2.031-0.434 0.586-0.987 1.074-1.623 1.432-0.996 0.559-2.148 0.774-3.278 0.61s-2.175-0.695-2.971-1.513c-0.797-0.818-1.301-1.876-1.435-3.010s0.111-2.28 0.696-3.261c0.585-0.981 1.477-1.741 2.538-2.162s2.232-0.48 3.33-0.168 2.063 0.979 2.743 1.895c0.681 0.917 1.040 2.033 1.021 3.174l-0.005 0.002z"></path>
<path fill="none" stroke="#1c5368" stroke-linejoin="round" stroke-linecap="round" stroke-miterlimit="4" stroke-width="0.9897" d="M6.568 19.206c1.315 1.025 2.965 1.524 4.628 1.397s3.219-0.868 4.364-2.080c1.145-1.212 1.797-2.808 1.828-4.475s-0.56-3.286-1.659-4.541c-1.099-1.254-2.626-2.054-4.283-2.243s-3.325 0.247-4.677 1.223c-1.353 0.975-2.293 2.42-2.637 4.052s-0.068 3.333 0.775 4.772v0"></path>
<path fill="#1c5368" stroke="#1c5368" stroke-linejoin="round" stroke-linecap="round" stroke-miterlimit="4" stroke-width="0.9897" d="M6.568 19.206l-4.143 3.97c-0.428-0.789-0.786-1.614-1.070-2.466l3.553-3.399 1.66 1.896z"></path>
<path fill="none" stroke="#1c5368" stroke-linejoin="round" stroke-linecap="round" stroke-miterlimit="4" stroke-width="0.6598" d="M8.157 3.733h5.959"></path>
<path fill="none" stroke="#1c5368" stroke-linejoin="round" stroke-linecap="round" stroke-miterlimit="4" stroke-width="0.6598" d="M8.157 4.708h5.959"></path>
<path fill="none" stroke="#1c5368" stroke-linejoin="round" stroke-linecap="round" stroke-miterlimit="4" stroke-width="0.6598" d="M18.78 6.001h5.017"></path>
<path fill="none" stroke="#1c5368" stroke-linejoin="round" stroke-linecap="round" stroke-miterlimit="4" stroke-width="0.6598" d="M19.486 7.212h3.723"></path>
<path fill="none" stroke="#1c5368" stroke-linejoin="round" stroke-linecap="round" stroke-miterlimit="4" stroke-width="0.6598" d="M19.486 8.157h3.723"></path>
<path fill="none" stroke="#1c5368" stroke-linejoin="round" stroke-linecap="round" stroke-miterlimit="4" stroke-width="0.6598" d="M19.486 9.137h3.723"></path>
<path fill="none" stroke="#1c5368" stroke-linejoin="round" stroke-linecap="round" stroke-miterlimit="4" stroke-width="0.6598" d="M17.404 13.764h5.805"></path>
<path fill="none" stroke="#1c5368" stroke-linejoin="round" stroke-linecap="round" stroke-miterlimit="4" stroke-width="0.6598" d="M17.305 15.060h5.903"></path>
<path fill="none" stroke="#1c5368" stroke-linejoin="round" stroke-linecap="round" stroke-miterlimit="4" stroke-width="0.6598" d="M16.885 16.51h6.323"></path>
<path fill="none" stroke="#1c5368" stroke-linejoin="round" stroke-linecap="round" stroke-miterlimit="4" stroke-width="0.6598" d="M16.204 17.748h3.844"></path>
<path fill="none" stroke="#1c5368" stroke-linejoin="round" stroke-linecap="round" stroke-miterlimit="4" stroke-width="0.6598" d="M9.646 22.231h6.558"></path>
<path fill="none" stroke="#1c5368" stroke-linejoin="round" stroke-linecap="round" stroke-miterlimit="4" stroke-width="0.6598" d="M9.646 23.612h6.558"></path>
<path fill="none" stroke="#1c5368" stroke-linejoin="round" stroke-linecap="round" stroke-miterlimit="4" stroke-width="0.6598" d="M9.646 27.489h5.213"></path>
<path fill="none" stroke="#1c5368" stroke-linejoin="round" stroke-linecap="round" stroke-miterlimit="4" stroke-width="0.6598" d="M19.486 27.327h3.528"></path>
<path fill="#1c5368" stroke="#1c5368" stroke-linejoin="round" stroke-linecap="round" stroke-miterlimit="4" stroke-width="0.6598" d="M15.67 12.47h-7.518v-1.353h6.895c0.272 0.419 0.482 0.874 0.623 1.353z"></path>
<path fill="#1c5368" stroke="#1c5368" stroke-linejoin="round" stroke-linecap="round" stroke-miterlimit="4" stroke-width="0.6598" d="M15.875 14.003c-0.005 0.326-0.041 0.65-0.108 0.969-0.042 0.201-0.097 0.4-0.163 0.595h-7.448v-1.564h7.719z"></path>
<path fill="#1c5368" stroke="#1c5368" stroke-linejoin="round" stroke-linecap="round" stroke-miterlimit="4" stroke-width="0.6598" d="M14.859 17.003c-0.434 0.586-0.987 1.074-1.623 1.432h-5.079v-1.433l6.702 0.002z"></path>
</svg>
