<!-- Generated by IcoMoon.io -->
<svg version="1.1" xmlns="http://www.w3.org/2000/svg" width="30" height="32" viewBox="0 0 30 32">
<title>4</title>
<path fill="none" stroke="#1c5368" stroke-linejoin="round" stroke-linecap="round" stroke-miterlimit="4" stroke-width="0.932" d="M18.534 10.653h-7.166v12.491h7.166v-12.491z"></path>
<path fill="none" stroke="#1c5368" stroke-linejoin="miter" stroke-linecap="butt" stroke-miterlimit="10" stroke-width="0.932" d="M16.935 2.626c3.594 0.501 6.867 2.34 9.164 5.15s3.448 6.383 3.224 10.005c-0.224 3.622-1.807 7.026-4.432 9.532s-6.1 3.928-9.729 3.982c-3.629 0.054-7.144-1.263-9.844-3.688s-4.384-5.781-4.717-9.394c-0.333-3.614 0.711-7.22 2.922-10.098s5.427-4.814 9.005-5.423"></path>
<path fill="none" stroke="#1c5368" stroke-linejoin="round" stroke-linecap="round" stroke-miterlimit="4" stroke-width="0.932" d="M10.715 23.953h8.497"></path>
<path fill="none" stroke="#1c5368" stroke-linejoin="round" stroke-linecap="round" stroke-miterlimit="4" stroke-width="0.932" d="M22.259 16.785l3.020-2.935 3.089 2.935"></path>
<path fill="none" stroke="#1c5368" stroke-linejoin="round" stroke-linecap="round" stroke-miterlimit="4" stroke-width="0.932" d="M22.873 16.19v3.312h4.877l-0.011-3.312"></path>
<path fill="none" stroke="#1c5368" stroke-linejoin="round" stroke-linecap="round" stroke-miterlimit="4" stroke-width="0.6214" d="M25.774 16.831h-0.927v1.284h0.927v-1.284z"></path>
<path fill="none" stroke="#1c5368" stroke-linejoin="round" stroke-linecap="round" stroke-miterlimit="4" stroke-width="0.932" d="M1.485 16.895l3.020-2.934 3.089 2.934"></path>
<path fill="none" stroke="#1c5368" stroke-linejoin="round" stroke-linecap="round" stroke-miterlimit="4" stroke-width="0.932" d="M2.099 16.299v3.312h4.876l-0.009-3.312"></path>
<path fill="none" stroke="#1c5368" stroke-linejoin="round" stroke-linecap="round" stroke-miterlimit="4" stroke-width="0.6214" d="M5 16.941h-0.927v1.284h0.927v-1.284z"></path>
<path fill="none" stroke="#1c5368" stroke-linejoin="round" stroke-linecap="round" stroke-miterlimit="4" stroke-width="0.6214" d="M13.456 11.734h-0.799v1.39h0.799v-1.39z"></path>
<path fill="none" stroke="#1c5368" stroke-linejoin="round" stroke-linecap="round" stroke-miterlimit="4" stroke-width="0.6214" d="M13.456 14.364h-0.799v1.39h0.799v-1.39z"></path>
<path fill="none" stroke="#1c5368" stroke-linejoin="round" stroke-linecap="round" stroke-miterlimit="4" stroke-width="0.6214" d="M13.456 16.996h-0.799v1.39h0.799v-1.39z"></path>
<path fill="none" stroke="#1c5368" stroke-linejoin="round" stroke-linecap="round" stroke-miterlimit="4" stroke-width="0.6214" d="M13.456 19.628h-0.799v1.39h0.799v-1.39z"></path>
<path fill="none" stroke="#1c5368" stroke-linejoin="round" stroke-linecap="round" stroke-miterlimit="4" stroke-width="0.6214" d="M15.365 11.734h-0.799v1.39h0.799v-1.39z"></path>
<path fill="none" stroke="#1c5368" stroke-linejoin="round" stroke-linecap="round" stroke-miterlimit="4" stroke-width="0.6214" d="M15.365 14.364h-0.799v1.39h0.799v-1.39z"></path>
<path fill="none" stroke="#1c5368" stroke-linejoin="round" stroke-linecap="round" stroke-miterlimit="4" stroke-width="0.6214" d="M15.365 16.996h-0.799v1.39h0.799v-1.39z"></path>
<path fill="none" stroke="#1c5368" stroke-linejoin="round" stroke-linecap="round" stroke-miterlimit="4" stroke-width="0.6214" d="M15.365 19.628h-0.799v1.39h0.799v-1.39z"></path>
<path fill="none" stroke="#1c5368" stroke-linejoin="round" stroke-linecap="round" stroke-miterlimit="4" stroke-width="0.6214" d="M17.273 11.734h-0.799v1.39h0.799v-1.39z"></path>
<path fill="none" stroke="#1c5368" stroke-linejoin="round" stroke-linecap="round" stroke-miterlimit="4" stroke-width="0.6214" d="M17.273 14.364h-0.799v1.39h0.799v-1.39z"></path>
<path fill="none" stroke="#1c5368" stroke-linejoin="round" stroke-linecap="round" stroke-miterlimit="4" stroke-width="0.6214" d="M17.273 16.996h-0.799v1.39h0.799v-1.39z"></path>
<path fill="none" stroke="#1c5368" stroke-linejoin="round" stroke-linecap="round" stroke-miterlimit="4" stroke-width="0.6214" d="M17.273 19.628h-0.799v1.39h0.799v-1.39z"></path>
<path fill="none" stroke="#1c5368" stroke-linejoin="round" stroke-linecap="round" stroke-miterlimit="4" stroke-width="0.932" d="M12.031 29.448l3.020-2.935 3.089 2.935"></path>
<path fill="none" stroke="#1c5368" stroke-linejoin="round" stroke-linecap="round" stroke-miterlimit="4" stroke-width="0.932" d="M17.518 31.002l-0.006-2.15"></path>
<path fill="none" stroke="#1c5368" stroke-linejoin="round" stroke-linecap="round" stroke-miterlimit="4" stroke-width="0.932" d="M12.643 31.099v-2.247"></path>
<path fill="none" stroke="#1c5368" stroke-linejoin="round" stroke-linecap="round" stroke-miterlimit="4" stroke-width="0.6214" d="M15.546 29.492h-0.927v1.284h0.927v-1.284z"></path>
<path fill="none" stroke="#1c5368" stroke-linejoin="round" stroke-linecap="round" stroke-miterlimit="4" stroke-width="0.932" d="M17.83 3.477l-3.087-2.935-3.021 2.935"></path>
<path fill="none" stroke="#1c5368" stroke-linejoin="round" stroke-linecap="round" stroke-miterlimit="4" stroke-width="0.932" d="M12.336 2.879v3.314h4.877l-0.011-3.314"></path>
<path fill="none" stroke="#1c5368" stroke-linejoin="round" stroke-linecap="round" stroke-miterlimit="4" stroke-width="0.6214" d="M15.238 3.521h-0.927v1.284h0.927v-1.284z"></path>
<path fill="none" stroke="#1c5368" stroke-linejoin="round" stroke-linecap="round" stroke-miterlimit="4" stroke-width="0.6214" d="M7.707 17.846h-0.737"></path>
<path fill="none" stroke="#1c5368" stroke-linejoin="round" stroke-linecap="round" stroke-miterlimit="4" stroke-width="0.6214" d="M8.656 17.846h0.931"></path>
<path fill="none" stroke="#1c5368" stroke-linejoin="round" stroke-linecap="round" stroke-miterlimit="4" stroke-width="0.6214" d="M10.46 17.846h0.931"></path>
<path fill="none" stroke="#1c5368" stroke-linejoin="round" stroke-linecap="round" stroke-miterlimit="4" stroke-width="0.6214" d="M18.571 17.955h0.931"></path>
<path fill="none" stroke="#1c5368" stroke-linejoin="round" stroke-linecap="round" stroke-miterlimit="4" stroke-width="0.6214" d="M20.45 17.955h0.931"></path>
<path fill="none" stroke="#1c5368" stroke-linejoin="round" stroke-linecap="round" stroke-miterlimit="4" stroke-width="0.6214" d="M22.872 17.955h-0.617"></path>
<path fill="none" stroke="#1c5368" stroke-linejoin="round" stroke-linecap="round" stroke-miterlimit="4" stroke-width="0.6214" d="M14.775 10.653v-0.622"></path>
<path fill="none" stroke="#1c5368" stroke-linejoin="round" stroke-linecap="round" stroke-miterlimit="4" stroke-width="0.6214" d="M14.775 9.084v-0.931"></path>
<path fill="none" stroke="#1c5368" stroke-linejoin="round" stroke-linecap="round" stroke-miterlimit="4" stroke-width="0.6214" d="M14.775 7.28v-0.931"></path>
<path fill="none" stroke="#1c5368" stroke-linejoin="round" stroke-linecap="round" stroke-miterlimit="4" stroke-width="0.6214" d="M14.951 26.689v-0.931"></path>
<path fill="none" stroke="#1c5368" stroke-linejoin="round" stroke-linecap="round" stroke-miterlimit="4" stroke-width="0.6214" d="M14.951 24.884v-0.931"></path>
</svg>
