<!-- Generated by IcoMoon.io -->
<svg version="1.1" xmlns="http://www.w3.org/2000/svg" width="35" height="32" viewBox="0 0 35 32">
<title>5</title>
<path fill="none" stroke="#1c5368" stroke-linejoin="round" stroke-linecap="round" stroke-miterlimit="4" stroke-width="1" d="M4.561 5.646c1.807-1.998 4.107-3.486 6.67-4.316s5.298-0.974 7.934-0.416c2.635 0.558 5.078 1.798 7.084 3.595s3.506 4.090 4.348 6.649c0.18 0.539 0.328 1.088 0.444 1.644 0.433 2.076 0.434 4.219 0.002 6.295s-1.286 4.041-2.511 5.773c-1.426 2.003-3.309 3.636-5.493 4.764s-4.606 1.719-7.064 1.722c-2.527 0.002-5.015-0.619-7.245-1.808s-4.132-2.909-5.538-5.009c-0.252-0.375-0.493-0.761-0.705-1.151-1.121-2.043-1.765-4.314-1.882-6.642s0.295-4.652 1.205-6.797M17.222 19.662c0 0.084 0 0.164 0 0.256 0.004 0.266 0.033 0.53 0.087 0.791 0.034 0.164 0.078 0.326 0.133 0.485l0.054 0.156-0.275-1.688zM16.578 22.353c-0.228-0.443-0.394-0.916-0.493-1.404l0.493 1.404z"></path>
<path fill="none" stroke="#1c5368" stroke-linejoin="round" stroke-linecap="round" stroke-miterlimit="4" stroke-width="1" d="M23.517 23.537c-0.574 0.323-1.216 0.508-1.874 0.539s-1.315-0.093-1.916-0.361c-0.121-0.055-0.237-0.114-0.35-0.178-0.518-0.292-0.97-0.69-1.325-1.167-0.044-0.059-0.087-0.12-0.127-0.182-0.174-0.261-0.317-0.541-0.427-0.835l-0.054-0.156c-0.055-0.159-0.099-0.321-0.133-0.485-0.054-0.26-0.083-0.525-0.087-0.791 0-0.085 0-0.173 0-0.256 0.014-0.337 0.069-0.671 0.164-0.995 0.215-0.737 0.627-1.402 1.191-1.924s1.26-0.879 2.012-1.035c0.056-0.011 0.113-0.023 0.164-0.031 0.879-0.147 1.783-0.011 2.579 0.39 0.687 0.343 1.267 0.867 1.678 1.515s0.639 1.396 0.657 2.163c0.019 0.767-0.172 1.525-0.552 2.193s-0.934 1.219-1.603 1.595l0.003 0.002z"></path>
<path fill="none" stroke="#1c5368" stroke-linejoin="round" stroke-linecap="round" stroke-miterlimit="4" stroke-width="1" d="M24.812 24.165c-0.595 0.464-1.28 0.801-2.012 0.987s-1.494 0.22-2.239 0.099-1.457-0.397-2.091-0.807c-0.634-0.41-1.176-0.947-1.592-1.577s-0.698-1.339-0.827-2.083c-0.129-0.744-0.103-1.506 0.077-2.24s0.509-1.421 0.968-2.021 1.036-1.098 1.697-1.464c0.191-0.106 0.388-0.201 0.59-0.283 0.294-0.12 0.597-0.213 0.907-0.279 0.378-0.081 0.764-0.121 1.151-0.122 0.151 0 0.302 0 0.452 0.018 0.555 0.044 1.1 0.175 1.614 0.388 0.727 0.296 1.381 0.745 1.919 1.316s0.947 1.251 1.199 1.994c0.252 0.743 0.342 1.532 0.262 2.312s-0.325 1.535-0.722 2.212v0"></path>
<path fill="#1c5368" stroke="#1c5368" stroke-linejoin="round" stroke-linecap="round" stroke-miterlimit="4" stroke-width="1" d="M28.527 24.875c-0.402 0.562-0.841 1.096-1.315 1.598l-2.408-2.301 1.356-1.545 2.367 2.249z"></path>
<path fill="#1c5368" stroke="#1c5368" stroke-linejoin="round" stroke-linecap="round" stroke-miterlimit="4" stroke-width="1" d="M16.080 20.948c0.099 0.488 0.265 0.961 0.493 1.404l-2.338 2.551-5.126-6.822-5.918 6.462c-0.252-0.375-0.493-0.761-0.705-1.151l6.628-7.157 5.244 6.664 1.721-1.951z"></path>
<path fill="#1c5368" d="M21.898 14.395l5.022-5.657 2.892 3.39 2.287-2.839 1.026 0.907-3.155 3.944-3.049-3.076-3.408 3.718z"></path>
<path fill="none" stroke="#1c5368" stroke-linejoin="round" stroke-linecap="round" stroke-miterlimit="4" stroke-width="1" d="M21.898 14.395l5.022-5.657 2.892 3.39 2.287-2.839 1.026 0.907-3.155 3.944-3.049-3.076-3.408 3.718"></path>
<path fill="#1c5368" d="M17.223 19.662c0 0.084 0 0.164 0 0.256 0.004 0.266 0.033 0.53 0.087 0.791 0.034 0.164 0.078 0.326 0.133 0.485l0.054 0.156z"></path>
<path fill="none" stroke="#1c5368" stroke-linejoin="round" stroke-linecap="round" stroke-miterlimit="4" stroke-width="1" d="M17.223 19.662c0 0.084 0 0.164 0 0.256 0.004 0.266 0.033 0.53 0.087 0.791 0.034 0.164 0.078 0.326 0.133 0.485l0.054 0.156"></path>
<path fill="#1c5368" stroke="#1c5368" stroke-linejoin="round" stroke-linecap="round" stroke-miterlimit="4" stroke-width="1" d="M25.075 17.683l-5.348 6.031c-0.121-0.055-0.237-0.114-0.35-0.178-0.518-0.292-0.97-0.69-1.325-1.167-0.044-0.059-0.087-0.12-0.127-0.182l5.425-6.115c0.716 0.363 1.314 0.921 1.724 1.611z"></path>
<path fill="#1c5368" stroke="#1c5368" stroke-linejoin="round" stroke-linecap="round" stroke-miterlimit="4" stroke-width="1" d="M30.975 8.738l2.864 2.366 0.628-4.057-3.492 1.692z"></path>
<path fill="none" stroke="#1c5368" stroke-linejoin="round" stroke-linecap="round" stroke-miterlimit="4" stroke-width="1" d="M21.585 14.377v-8.731h-19.782v12.395h14.474"></path>
<path fill="none" stroke="#1c5368" stroke-linejoin="round" stroke-linecap="round" stroke-miterlimit="4" stroke-width="0.6667" d="M2.995 6.901v1.506"></path>
<path fill="none" stroke="#1c5368" stroke-linejoin="round" stroke-linecap="round" stroke-miterlimit="4" stroke-width="0.6667" d="M4.711 9.284v1.506"></path>
<path fill="none" stroke="#1c5368" stroke-linejoin="round" stroke-linecap="round" stroke-miterlimit="4" stroke-width="0.6667" d="M7.387 6.901v1.506"></path>
<path fill="none" stroke="#1c5368" stroke-linejoin="round" stroke-linecap="round" stroke-miterlimit="4" stroke-width="0.6667" d="M8.495 6.901v1.506"></path>
<path fill="none" stroke="#1c5368" stroke-linejoin="round" stroke-linecap="round" stroke-miterlimit="4" stroke-width="0.6667" d="M8.975 9.284v1.506"></path>
<path fill="none" stroke="#1c5368" stroke-linejoin="round" stroke-linecap="round" stroke-miterlimit="4" stroke-width="0.6667" d="M9.528 6.901v1.506"></path>
<path fill="none" stroke="#1c5368" stroke-linejoin="round" stroke-linecap="round" stroke-miterlimit="4" stroke-width="0.6667" d="M12.192 6.901v1.506"></path>
<path fill="none" stroke="#1c5368" stroke-linejoin="round" stroke-linecap="round" stroke-miterlimit="4" stroke-width="0.6667" d="M15.291 6.901v1.506"></path>
<path fill="none" stroke="#1c5368" stroke-linejoin="round" stroke-linecap="round" stroke-miterlimit="4" stroke-width="0.6667" d="M16.326 6.901v1.506"></path>
<path fill="none" stroke="#1c5368" stroke-linejoin="round" stroke-linecap="round" stroke-miterlimit="4" stroke-width="0.6667" d="M19.077 6.901v1.506"></path>
<path fill="none" stroke="#1c5368" stroke-linejoin="round" stroke-linecap="round" stroke-miterlimit="4" stroke-width="0.6667" d="M4.3 8.406c0.294 0 0.533-0.337 0.533-0.753s-0.238-0.753-0.533-0.753c-0.294 0-0.533 0.337-0.533 0.753s0.238 0.753 0.533 0.753z"></path>
<path fill="none" stroke="#1c5368" stroke-linejoin="round" stroke-linecap="round" stroke-miterlimit="4" stroke-width="0.6667" d="M5.995 8.406c0.294 0 0.533-0.337 0.533-0.753s-0.238-0.753-0.533-0.753c-0.294 0-0.533 0.337-0.533 0.753s0.238 0.753 0.533 0.753z"></path>
<path fill="none" stroke="#1c5368" stroke-linejoin="round" stroke-linecap="round" stroke-miterlimit="4" stroke-width="0.6667" d="M2.995 14.245v1.506"></path>
<path fill="none" stroke="#1c5368" stroke-linejoin="round" stroke-linecap="round" stroke-miterlimit="4" stroke-width="0.6667" d="M7.387 14.245v1.506"></path>
<path fill="none" stroke="#1c5368" stroke-linejoin="round" stroke-linecap="round" stroke-miterlimit="4" stroke-width="0.6667" d="M8.495 14.245v1.506"></path>
<path fill="none" stroke="#1c5368" stroke-linejoin="round" stroke-linecap="round" stroke-miterlimit="4" stroke-width="0.6667" d="M4.3 15.751c0.294 0 0.533-0.337 0.533-0.753s-0.238-0.753-0.533-0.753c-0.294 0-0.533 0.337-0.533 0.753s0.238 0.753 0.533 0.753z"></path>
<path fill="none" stroke="#1c5368" stroke-linejoin="round" stroke-linecap="round" stroke-miterlimit="4" stroke-width="0.6667" d="M5.995 15.751c0.294 0 0.533-0.337 0.533-0.753s-0.238-0.753-0.533-0.753c-0.294 0-0.533 0.337-0.533 0.753s0.238 0.753 0.533 0.753z"></path>
<path fill="none" stroke="#1c5368" stroke-linejoin="round" stroke-linecap="round" stroke-miterlimit="4" stroke-width="0.6667" d="M4.922 11.762v1.504"></path>
<path fill="none" stroke="#1c5368" stroke-linejoin="round" stroke-linecap="round" stroke-miterlimit="4" stroke-width="0.6667" d="M6.029 11.762v1.504"></path>
<path fill="none" stroke="#1c5368" stroke-linejoin="round" stroke-linecap="round" stroke-miterlimit="4" stroke-width="0.6667" d="M3.529 13.266c0.294 0 0.533-0.337 0.533-0.753s-0.238-0.753-0.533-0.753-0.533 0.337-0.533 0.753c0 0.416 0.238 0.753 0.533 0.753z"></path>
<path fill="none" stroke="#1c5368" stroke-linejoin="round" stroke-linecap="round" stroke-miterlimit="4" stroke-width="0.6667" d="M5.988 10.79c0.294 0 0.533-0.337 0.533-0.753s-0.238-0.753-0.533-0.753c-0.294 0-0.533 0.337-0.533 0.753s0.238 0.753 0.533 0.753z"></path>
<path fill="none" stroke="#1c5368" stroke-linejoin="round" stroke-linecap="round" stroke-miterlimit="4" stroke-width="0.6667" d="M3.406 10.79c0.294 0 0.533-0.337 0.533-0.753s-0.238-0.753-0.533-0.753-0.533 0.337-0.533 0.753c0 0.416 0.238 0.753 0.533 0.753z"></path>
<path fill="none" stroke="#1c5368" stroke-linejoin="round" stroke-linecap="round" stroke-miterlimit="4" stroke-width="0.6667" d="M7.69 10.79c0.294 0 0.533-0.337 0.533-0.753s-0.238-0.753-0.533-0.753c-0.294 0-0.533 0.337-0.533 0.753s0.238 0.753 0.533 0.753z"></path>
<path fill="none" stroke="#1c5368" stroke-linejoin="round" stroke-linecap="round" stroke-miterlimit="4" stroke-width="0.6667" d="M12.725 10.79c0.294 0 0.533-0.337 0.533-0.753s-0.238-0.753-0.533-0.753-0.533 0.337-0.533 0.753c0 0.416 0.238 0.753 0.533 0.753z"></path>
<path fill="none" stroke="#1c5368" stroke-linejoin="round" stroke-linecap="round" stroke-miterlimit="4" stroke-width="0.6667" d="M14.349 10.79c0.294 0 0.533-0.337 0.533-0.753s-0.238-0.753-0.533-0.753c-0.294 0-0.533 0.337-0.533 0.753s0.238 0.753 0.533 0.753z"></path>
<path fill="none" stroke="#1c5368" stroke-linejoin="round" stroke-linecap="round" stroke-miterlimit="4" stroke-width="0.6667" d="M19.187 10.79c0.294 0 0.533-0.337 0.533-0.753s-0.238-0.753-0.533-0.753c-0.294 0-0.533 0.337-0.533 0.753s0.238 0.753 0.533 0.753z"></path>
<path fill="none" stroke="#1c5368" stroke-linejoin="round" stroke-linecap="round" stroke-miterlimit="4" stroke-width="0.6667" d="M20.427 13.266c0.294 0 0.533-0.337 0.533-0.753s-0.238-0.753-0.533-0.753-0.533 0.337-0.533 0.753c0 0.416 0.238 0.753 0.533 0.753z"></path>
<path fill="none" stroke="#1c5368" stroke-linejoin="round" stroke-linecap="round" stroke-miterlimit="4" stroke-width="0.6667" d="M11.102 10.79c0.294 0 0.533-0.337 0.533-0.753s-0.238-0.753-0.533-0.753c-0.294 0-0.533 0.337-0.533 0.753s0.238 0.753 0.533 0.753z"></path>
<path fill="none" stroke="#1c5368" stroke-linejoin="round" stroke-linecap="round" stroke-miterlimit="4" stroke-width="0.6667" d="M10.872 8.406c0.294 0 0.533-0.337 0.533-0.753s-0.238-0.753-0.533-0.753c-0.294 0-0.533 0.337-0.533 0.753s0.238 0.753 0.533 0.753z"></path>
<path fill="none" stroke="#1c5368" stroke-linejoin="round" stroke-linecap="round" stroke-miterlimit="4" stroke-width="0.6667" d="M15.434 9.284v1.506"></path>
<path fill="none" stroke="#1c5368" stroke-linejoin="round" stroke-linecap="round" stroke-miterlimit="4" stroke-width="0.6667" d="M18.099 9.284v1.506"></path>
<path fill="none" stroke="#1c5368" stroke-linejoin="round" stroke-linecap="round" stroke-miterlimit="4" stroke-width="0.6667" d="M16.779 10.79c0.294 0 0.533-0.337 0.533-0.753s-0.238-0.753-0.533-0.753c-0.294 0-0.533 0.337-0.533 0.753s0.238 0.753 0.533 0.753z"></path>
<path fill="none" stroke="#1c5368" stroke-linejoin="round" stroke-linecap="round" stroke-miterlimit="4" stroke-width="0.6667" d="M7.473 13.266c0.294 0 0.533-0.337 0.533-0.753s-0.238-0.753-0.533-0.753c-0.294 0-0.533 0.337-0.533 0.753s0.238 0.753 0.533 0.753z"></path>
<path fill="none" stroke="#1c5368" stroke-linejoin="round" stroke-linecap="round" stroke-miterlimit="4" stroke-width="0.6667" d="M8.642 11.762v1.504"></path>
<path fill="none" stroke="#1c5368" stroke-linejoin="round" stroke-linecap="round" stroke-miterlimit="4" stroke-width="0.6667" d="M11.222 11.762v1.504"></path>
<path fill="none" stroke="#1c5368" stroke-linejoin="round" stroke-linecap="round" stroke-miterlimit="4" stroke-width="0.6667" d="M12.192 11.762v1.504"></path>
<path fill="none" stroke="#1c5368" stroke-linejoin="round" stroke-linecap="round" stroke-miterlimit="4" stroke-width="0.6667" d="M9.902 13.266c0.294 0 0.533-0.337 0.533-0.753s-0.238-0.753-0.533-0.753c-0.294 0-0.533 0.337-0.533 0.753s0.238 0.753 0.533 0.753z"></path>
<path fill="none" stroke="#1c5368" stroke-linejoin="round" stroke-linecap="round" stroke-miterlimit="4" stroke-width="0.6667" d="M11.635 15.751c0.294 0 0.533-0.337 0.533-0.753s-0.238-0.753-0.533-0.753c-0.294 0-0.533 0.337-0.533 0.753s0.238 0.753 0.533 0.753z"></path>
<path fill="none" stroke="#1c5368" stroke-linejoin="round" stroke-linecap="round" stroke-miterlimit="4" stroke-width="0.6667" d="M12.805 14.245v1.506"></path>
<path fill="none" stroke="#1c5368" stroke-linejoin="round" stroke-linecap="round" stroke-miterlimit="4" stroke-width="0.6667" d="M15.386 14.245v1.506"></path>
<path fill="none" stroke="#1c5368" stroke-linejoin="round" stroke-linecap="round" stroke-miterlimit="4" stroke-width="0.6667" d="M16.356 14.245v1.506"></path>
<path fill="none" stroke="#1c5368" stroke-linejoin="round" stroke-linecap="round" stroke-miterlimit="4" stroke-width="0.6667" d="M14.066 15.751c0.294 0 0.533-0.337 0.533-0.753s-0.238-0.753-0.533-0.753c-0.294 0-0.533 0.337-0.533 0.753s0.238 0.753 0.533 0.753z"></path>
<path fill="none" stroke="#1c5368" stroke-linejoin="round" stroke-linecap="round" stroke-miterlimit="4" stroke-width="0.6667" d="M15.704 13.266c0.294 0 0.533-0.337 0.533-0.753s-0.238-0.753-0.533-0.753c-0.294 0-0.533 0.337-0.533 0.753s0.238 0.753 0.533 0.753z"></path>
<path fill="none" stroke="#1c5368" stroke-linejoin="round" stroke-linecap="round" stroke-miterlimit="4" stroke-width="0.6667" d="M16.922 11.762v1.504"></path>
<path fill="none" stroke="#1c5368" stroke-linejoin="round" stroke-linecap="round" stroke-miterlimit="4" stroke-width="0.6667" d="M19.327 11.762v1.504"></path>
<path fill="none" stroke="#1c5368" stroke-linejoin="round" stroke-linecap="round" stroke-miterlimit="4" stroke-width="0.6667" d="M18.133 13.266c0.294 0 0.533-0.337 0.533-0.753s-0.238-0.753-0.533-0.753-0.533 0.337-0.533 0.753c0 0.416 0.238 0.753 0.533 0.753z"></path>
<path fill="none" stroke="#1c5368" stroke-linejoin="round" stroke-linecap="round" stroke-miterlimit="4" stroke-width="0.6667" d="M20.292 14.499c-0.31 0.066-0.614 0.16-0.907 0.279 0.066-0.309 0.268-0.533 0.51-0.533 0.082 0.006 0.162 0.032 0.231 0.076s0.127 0.105 0.167 0.177v0z"></path>
<path fill="none" stroke="#1c5368" stroke-linejoin="round" stroke-linecap="round" stroke-miterlimit="4" stroke-width="0.6667" d="M18.794 15.061v-0.815"></path>
<path fill="none" stroke="#1c5368" stroke-linejoin="round" stroke-linecap="round" stroke-miterlimit="4" stroke-width="0.6667" d="M17.601 15.751c0.294 0 0.533-0.337 0.533-0.753s-0.238-0.753-0.533-0.753c-0.294 0-0.533 0.337-0.533 0.753s0.238 0.753 0.533 0.753z"></path>
<path fill="none" stroke="#1c5368" stroke-linejoin="round" stroke-linecap="round" stroke-miterlimit="4" stroke-width="0.6667" d="M17.701 8.406c0.294 0 0.533-0.337 0.533-0.753s-0.238-0.753-0.533-0.753c-0.294 0-0.533 0.337-0.533 0.753s0.238 0.753 0.533 0.753z"></path>
<path fill="none" stroke="#1c5368" stroke-linejoin="round" stroke-linecap="round" stroke-miterlimit="4" stroke-width="0.6667" d="M20.308 8.406c0.294 0 0.533-0.337 0.533-0.753s-0.238-0.753-0.533-0.753c-0.294 0-0.533 0.337-0.533 0.753s0.238 0.753 0.533 0.753z"></path>
</svg>
