<!-- Generated by IcoMoon.io -->
<svg version="1.1" xmlns="http://www.w3.org/2000/svg" width="32" height="32" viewBox="0 0 32 32">
<title>6</title>
<path fill="none" stroke="#1c5368" stroke-linejoin="miter" stroke-linecap="butt" stroke-miterlimit="10" stroke-width="0.9796" d="M16.042 31.509c8.542 0 15.467-6.925 15.467-15.467s-6.925-15.467-15.467-15.467c-8.542 0-15.467 6.925-15.467 15.467s6.925 15.467 15.467 15.467z"></path>
<path fill="#1c5368" d="M14.208 14.727c-0.008 0.009-0.018 0.015-0.029 0.020s-0.022 0.007-0.034 0.007h-2.432c-0.005-0.001-0.010-0.001-0.015 0.001s-0.009 0.004-0.013 0.008c-0.004 0.004-0.006 0.008-0.008 0.013s-0.002 0.010-0.001 0.015v1.156c0 0.025 0.012 0.038 0.036 0.038h1.594c0.012-0 0.023 0.002 0.034 0.007s0.021 0.011 0.029 0.020c0.008 0.008 0.015 0.018 0.020 0.029s0.007 0.022 0.007 0.034v0.719c0 0.012-0.002 0.023-0.007 0.034s-0.011 0.021-0.020 0.029c-0.017 0.017-0.039 0.026-0.063 0.026h-1.594c-0.005-0.001-0.010-0.001-0.015 0.001s-0.009 0.004-0.013 0.008c-0.004 0.004-0.006 0.008-0.008 0.013s-0.002 0.010-0.001 0.015v1.201c-0.001 0.005-0.001 0.010 0.001 0.015s0.004 0.009 0.008 0.013c0.004 0.004 0.008 0.006 0.013 0.008s0.010 0.002 0.015 0.001h2.432c0.024 0 0.046 0.010 0.063 0.026 0.008 0.008 0.015 0.018 0.019 0.029s0.006 0.022 0.006 0.034v0.719c0 0.012-0.002 0.023-0.006 0.034s-0.011 0.021-0.019 0.029c-0.008 0.009-0.018 0.015-0.029 0.020s-0.022 0.007-0.034 0.007h-3.425c-0.012 0-0.023-0.002-0.034-0.007s-0.021-0.011-0.029-0.020c-0.008-0.008-0.015-0.018-0.019-0.029s-0.006-0.022-0.006-0.034v-5.017c-0-0.012 0.002-0.023 0.006-0.034s0.011-0.021 0.019-0.029c0.008-0.009 0.018-0.015 0.029-0.020s0.022-0.007 0.034-0.007h3.425c0.012-0 0.023 0.002 0.034 0.007s0.021 0.011 0.029 0.020c0.008 0.008 0.015 0.018 0.019 0.029s0.006 0.022 0.006 0.034v0.719c0 0.012-0.002 0.023-0.006 0.034s-0.011 0.021-0.019 0.029z"></path>
<path fill="#1c5368" d="M17.705 18.976l-0.927-2.052c-0.004-0.009-0.010-0.016-0.018-0.022s-0.017-0.008-0.027-0.008h-0.689c-0.005-0.001-0.010 0-0.015 0.002s-0.009 0.005-0.013 0.008c-0.004 0.004-0.006 0.008-0.008 0.013s-0.002 0.010-0.002 0.015v2.022c0 0.012-0.002 0.023-0.006 0.034s-0.011 0.021-0.019 0.029c-0.008 0.008-0.018 0.015-0.029 0.019s-0.022 0.007-0.034 0.007h-0.867c-0.024-0-0.046-0.010-0.063-0.027s-0.026-0.039-0.027-0.063v-5.009c0-0.024 0.010-0.046 0.027-0.063s0.039-0.026 0.063-0.027h2.119c0.287-0.005 0.571 0.061 0.826 0.193 0.235 0.124 0.429 0.315 0.557 0.548 0.135 0.254 0.203 0.538 0.197 0.826 0.009 0.307-0.080 0.609-0.253 0.862-0.172 0.242-0.419 0.421-0.704 0.507-0.005 0.001-0.010 0.004-0.015 0.007s-0.008 0.008-0.010 0.013c-0.002 0.005-0.003 0.011-0.003 0.016s0.002 0.011 0.004 0.016l1.008 2.096c0.008 0.014 0.014 0.029 0.017 0.045 0 0.040-0.028 0.059-0.083 0.059h-0.912c-0.021-0.001-0.042-0.008-0.059-0.020s-0.030-0.030-0.037-0.051zM16.007 14.79v1.267c-0.001 0.005 0 0.010 0.002 0.015s0.005 0.009 0.008 0.013c0.004 0.004 0.008 0.006 0.013 0.008s0.010 0.002 0.015 0.002h0.971c0.187 0.007 0.369-0.060 0.507-0.185 0.065-0.062 0.116-0.137 0.149-0.22s0.049-0.172 0.046-0.262c0.003-0.090-0.012-0.18-0.046-0.263s-0.084-0.159-0.149-0.222c-0.068-0.064-0.147-0.114-0.234-0.147s-0.18-0.049-0.273-0.046h-0.971c-0.020 0-0.038 0.017-0.038 0.041z"></path>
<path fill="#1c5368" d="M22.514 14.049c0.242 0.129 0.442 0.326 0.573 0.567 0.139 0.258 0.21 0.548 0.205 0.841 0.006 0.289-0.067 0.575-0.211 0.826-0.141 0.237-0.347 0.428-0.593 0.552-0.273 0.135-0.574 0.203-0.879 0.197h-1.052c-0.005-0.001-0.010-0.001-0.015 0.001s-0.009 0.004-0.013 0.008-0.006 0.008-0.008 0.013c-0.002 0.005-0.002 0.010-0.001 0.015v1.89c-0 0.024-0.010 0.046-0.027 0.063s-0.039 0.026-0.063 0.027h-0.867c-0.012 0-0.023-0.002-0.034-0.007s-0.021-0.011-0.029-0.020c-0.008-0.008-0.015-0.018-0.019-0.029s-0.006-0.022-0.006-0.034v-5.019c-0-0.024 0.009-0.047 0.025-0.064 0.017-0.016 0.039-0.025 0.063-0.025h2.090c0.299-0.007 0.595 0.062 0.861 0.2zM22.047 15.994c0.069-0.066 0.124-0.146 0.16-0.235s0.052-0.184 0.048-0.28c0.004-0.097-0.013-0.194-0.048-0.285s-0.090-0.172-0.16-0.241c-0.074-0.068-0.16-0.121-0.254-0.155s-0.194-0.050-0.294-0.045h-0.942c-0.005-0.001-0.010-0.001-0.015 0.001s-0.009 0.004-0.013 0.008-0.006 0.008-0.008 0.013c-0.002 0.005-0.002 0.010-0.001 0.015v1.365c-0.001 0.005-0.001 0.010 0.001 0.015s0.004 0.009 0.008 0.013c0.004 0.004 0.008 0.006 0.013 0.008s0.010 0.002 0.015 0.001h0.942c0.1 0.005 0.2-0.010 0.294-0.044s0.181-0.086 0.255-0.153z"></path>
<path fill="none" stroke="#1c5368" stroke-linejoin="round" stroke-linecap="round" stroke-miterlimit="4" stroke-width="0.9796" d="M6.383 3.961v4.606h-3.885"></path>
<path fill="none" stroke="#1c5368" stroke-linejoin="round" stroke-linecap="round" stroke-miterlimit="4" stroke-width="0.9796" d="M1.103 12.021h5.28v9.322h-4.733"></path>
<path fill="none" stroke="#1c5368" stroke-linejoin="round" stroke-linecap="round" stroke-miterlimit="4" stroke-width="0.9796" d="M11.629 30.868v-5.447h9.322v5.28"></path>
<path fill="none" stroke="#1c5368" stroke-linejoin="round" stroke-linecap="round" stroke-miterlimit="4" stroke-width="0.9796" d="M3.743 25.422h2.64v2.699"></path>
<path fill="none" stroke="#1c5368" stroke-linejoin="round" stroke-linecap="round" stroke-miterlimit="4" stroke-width="0.9796" d="M30.562 21.379c-1.244-0.127-2.393-0.72-3.219-1.659s-1.265-2.155-1.232-3.405c0.034-1.25 0.538-2.441 1.413-3.334s2.055-1.423 3.303-1.483"></path>
<path fill="none" stroke="#1c5368" stroke-linejoin="round" stroke-linecap="round" stroke-miterlimit="4" stroke-width="0.9796" d="M13.093 13.357l3.198-3.111 3.185 3.111"></path>
<path fill="none" stroke="#1c5368" stroke-linejoin="round" stroke-linecap="round" stroke-miterlimit="4" stroke-width="0.9796" d="M19.476 19.788l-3.2 3.109-3.183-3.109"></path>
<path fill="none" stroke="#1c5368" stroke-linejoin="round" stroke-linecap="round" stroke-miterlimit="4" stroke-width="0.6531" d="M6.383 16.45l3.515-0.010"></path>
<path fill="none" stroke="#1c5368" stroke-linejoin="round" stroke-linecap="round" stroke-miterlimit="4" stroke-width="0.6531" d="M23.768 16.45h2.384"></path>
<path fill="none" stroke="#1c5368" stroke-linejoin="round" stroke-linecap="round" stroke-miterlimit="4" stroke-width="0.6531" d="M16.276 22.897l0.008 2.524"></path>
</svg>
